<svg width="46" height="44" viewBox="0 0 46 44" fill="none" xmlns="http://www.w3.org/2000/svg">
<path d="M32.2 4.9H32.7V4.4C32.7 3.48592 33.2342 2.50945 34.0634 1.74193C34.8925 0.974415 35.9269 0.5 36.8 0.5H45.5V19.8C45.5 20.7294 45.0085 21.7064 44.2169 22.4637C43.4266 23.2196 42.3951 23.7 41.4 23.7H36.34H35.9337L35.8506 24.0977C35.4072 26.2184 34.4724 28.1488 32.8155 29.6297C31.1589 31.1104 28.7379 32.1796 25.2539 32.5021L24.8 32.5441V33V37.576V38.008L25.2274 38.0707C28.5301 38.5551 30.1213 40.074 30.9055 41.4193C31.3037 42.1023 31.503 42.7568 31.6025 43.2395C31.6218 43.3335 31.6374 43.4207 31.6498 43.5H14.3502C14.3626 43.4207 14.3782 43.3335 14.3975 43.2395C14.497 42.7568 14.6963 42.1023 15.0945 41.4193C15.8787 40.074 17.4699 38.5551 20.7726 38.0707L21.2 38.008V37.576V33V32.5441L20.7461 32.5021C17.2621 32.1796 14.8411 31.1104 13.1845 29.6297C11.5276 28.1488 10.5928 26.2184 10.1494 24.0977L10.0663 23.7H9.66H4.6C3.60492 23.7 2.57336 23.2196 1.78311 22.4637C0.991453 21.7064 0.5 20.7294 0.5 19.8V0.5H9.2C10.0731 0.5 11.1075 0.974415 11.9366 1.74193C12.7658 2.50945 13.3 3.48592 13.3 4.4V4.9H13.8H32.2ZM9.2 20.3H9.7V19.8V4.4V3.9H9.2H4.6H4.1V4.4V19.8V20.3H4.6H9.2ZM41.4 20.3H41.9V19.8V4.4V3.9H41.4H36.8H36.3V4.4V19.8V20.3H36.8H41.4Z" fill="#3BEE70" stroke="black"/>
</svg>
