<svg width="24" height="18" viewBox="0 0 24 18" fill="none" xmlns="http://www.w3.org/2000/svg">
<path d="M21.6 0H2.4C1.08 0 0.012 1.0125 0.012 2.25L0 15.75C0 16.9875 1.08 18 2.4 18H21.6C22.92 18 24 16.9875 24 15.75V2.25C24 1.0125 22.92 0 21.6 0ZM21.12 4.78125L12.636 9.75375C12.252 9.97875 11.748 9.97875 11.364 9.75375L2.88 4.78125C2.58 4.60125 2.4 4.2975 2.4 3.97125C2.4 3.2175 3.276 2.7675 3.96 3.16125L12 7.875L20.04 3.16125C20.724 2.7675 21.6 3.2175 21.6 3.97125C21.6 4.2975 21.42 4.60125 21.12 4.78125Z" fill="#FFFDFD"/>
</svg>
