<svg width="15" height="17" viewBox="0 0 15 17" fill="none" xmlns="http://www.w3.org/2000/svg">
<path d="M3.29197 7.50791C4.44299 10.0016 6.29742 12.0371 8.55949 13.3148L10.318 11.3763C10.5338 11.1383 10.8535 11.059 11.1333 11.1648C12.0285 11.4908 12.9957 11.667 13.9869 11.667C14.4265 11.667 14.7862 12.0636 14.7862 12.5482V15.6235C14.7862 16.1082 14.4265 16.5047 13.9869 16.5047C6.48126 16.5047 0.398438 9.79896 0.398438 1.52473C0.398438 1.04008 0.758131 0.643555 1.19776 0.643555H3.99538C4.435 0.643555 4.7947 1.04008 4.7947 1.52473C4.7947 2.6262 4.95456 3.68361 5.25031 4.67052C5.33823 4.97893 5.27429 5.32259 5.05048 5.56932L3.29197 7.50791Z" fill="#FFFDFD"/>
</svg>
