<svg width="53" height="47" viewBox="0 0 53 47" fill="none" xmlns="http://www.w3.org/2000/svg">
<path d="M2.17344 18.7796C4.91883 20.1082 20.2473 26.3469 22.6495 27.5022C25.0517 28.6575 26.7676 28.6575 29.8561 27.0978C32.8875 25.4804 47.3008 19.5305 50.0462 18.0864C51.4761 17.3355 52.1053 16.7578 52.1053 16.2379V10.9813C52.1053 10.4614 51.4189 9.99925 50.0462 9.47936L30.3137 1.73879C27.5683 0.699012 26.4816 0.756777 23.2786 1.91209C20.0185 3.06739 4.80444 9.13277 2.11624 10.1725C0.80074 10.6924 0.0571959 11.2123 0.0571959 11.7322H0V16.9889C0 17.5665 0.800739 18.1442 2.17344 18.7796ZM27.1108 19.5305L18.703 16.0069L30.7713 14.1584L27.1108 19.5305ZM45.3562 11.1546L38.2067 13.9851L37.4632 14.2739L30.3709 11.4434L38.2639 8.26628L45.3562 11.1546ZM24.4798 5.95567L23.3358 3.76058L26.9392 5.20472L30.3709 4.04941L29.4558 6.30226L32.9447 7.63086L28.4263 8.09299L27.3967 10.5191L25.7953 7.86193L20.5904 7.3998L24.4798 5.95567ZM15.5 9.01723C19.0462 9.01723 21.9631 10.1725 21.9631 11.5589C21.9631 12.9453 19.1034 14.1006 15.5 14.1006C11.9539 14.1006 9.03692 12.9453 9.03692 11.5589C9.03692 10.1725 11.9539 9.01723 15.5 9.01723ZM2.17344 27.791C4.91883 29.1196 20.2473 35.3583 22.6495 36.5136C25.0517 37.6689 26.7676 37.6689 29.8561 36.1092C32.8875 34.4918 47.3008 28.542 50.0462 27.0978C51.4761 26.3469 52.1053 25.7692 52.1053 25.2493V19.9927C52.1053 20.5126 51.4189 21.0324 50.1034 21.7834C47.358 23.2275 32.9447 29.2351 29.9133 30.7948C26.882 32.4122 25.1661 32.4122 22.7639 31.1992C20.3617 30.0439 4.97602 23.8052 2.23063 22.4766C0.857935 21.8412 0.0571959 21.2635 0.0571959 20.7436V26.058C2.17332e-07 26.5779 0.800739 27.0978 2.17344 27.791ZM2.17344 36.4558C4.91883 37.7844 20.2473 44.0231 22.6495 45.1784C25.0517 46.3337 26.7676 46.3337 29.8561 44.774C32.8875 43.1566 47.3008 37.2068 50.0462 35.7626C51.4761 35.0117 52.1053 34.434 52.1053 33.9141V28.6575C52.1053 29.1774 51.4189 29.6973 50.1034 30.4482C47.358 31.8923 32.9447 37.8999 29.9133 39.4596C26.882 41.077 25.1661 41.077 22.7639 39.864C20.3617 38.7087 4.97602 32.47 2.23063 31.1414C0.857935 30.506 0.0571959 29.9283 0.0571959 29.4084V34.7229C2.17332e-07 35.185 0.800739 35.7626 2.17344 36.4558Z" fill="#89BCD9"/>
</svg>
