<svg width="11" height="16" viewBox="0 0 11 16" fill="none" xmlns="http://www.w3.org/2000/svg">
<path d="M8 12C8.3 11.0031 8.92188 10.1531 9.5375 9.30625C9.7 9.08437 9.8625 8.8625 10.0188 8.6375C10.6375 7.74687 11 6.66875 11 5.50313C11 2.4625 8.5375 0 5.5 0C2.4625 0 0 2.4625 0 5.5C0 6.66562 0.3625 7.74687 0.98125 8.63437C1.1375 8.85937 1.3 9.08125 1.4625 9.30313C2.08125 10.15 2.70312 11.0031 3 11.9969H8V12ZM5.5 16C6.88125 16 8 14.8813 8 13.5V13H3V13.5C3 14.8813 4.11875 16 5.5 16Z" fill="#3B6BEE"/>
</svg>
