<svg width="40" height="40" viewBox="0 0 40 40" fill="none" xmlns="http://www.w3.org/2000/svg">
<path d="M16.8583 36.3517C17.8683 37.1851 18.9217 37.9467 20 38.6901C21.0807 37.9566 22.1289 37.1764 23.1417 36.3517C24.83 34.9654 26.4189 33.4623 27.8967 31.8534C31.3033 28.1284 35 22.7284 35 16.6667C35 14.6969 34.612 12.7464 33.8582 10.9265C33.1044 9.10661 31.9995 7.45302 30.6066 6.06015C29.2137 4.66727 27.5601 3.56238 25.7403 2.80856C23.9204 2.05473 21.9698 1.66675 20 1.66675C18.0302 1.66675 16.0796 2.05473 14.2597 2.80856C12.4399 3.56238 10.7863 4.66727 9.3934 6.06015C8.00052 7.45302 6.89563 9.10661 6.14181 10.9265C5.38799 12.7464 5 14.6969 5 16.6667C5 22.7284 8.69667 28.1267 12.1033 31.8534C13.581 33.4629 15.1699 34.9649 16.8583 36.3517ZM20 22.0834C18.5634 22.0834 17.1857 21.5127 16.1698 20.4969C15.154 19.4811 14.5833 18.1033 14.5833 16.6667C14.5833 15.2302 15.154 13.8524 16.1698 12.8366C17.1857 11.8208 18.5634 11.2501 20 11.2501C21.4366 11.2501 22.8143 11.8208 23.8302 12.8366C24.846 13.8524 25.4167 15.2302 25.4167 16.6667C25.4167 18.1033 24.846 19.4811 23.8302 20.4969C22.8143 21.5127 21.4366 22.0834 20 22.0834Z" fill="#89BCD9"/>
</svg>
