<svg width="45" height="45" viewBox="0 0 45 45" fill="none" xmlns="http://www.w3.org/2000/svg">
<path d="M3.75 37.5C2.71875 37.5 1.83625 37.1331 1.1025 36.3994C0.36875 35.6656 0.00125 34.7825 0 33.75H7.5C6.46875 33.75 5.58625 33.3831 4.8525 32.6494C4.11875 31.9156 3.75125 31.0325 3.75 30V9.375C3.75 8.34375 4.1175 7.46125 4.8525 6.7275C5.5875 5.99375 6.47 5.62625 7.5 5.625H37.5C38.5313 5.625 39.4144 5.9925 40.1494 6.7275C40.8844 7.4625 41.2512 8.345 41.25 9.375V30C41.25 31.0313 40.8831 31.9144 40.1494 32.6494C39.4156 33.3844 38.5325 33.7512 37.5 33.75H45C45 34.7813 44.6331 35.6644 43.8994 36.3994C43.1656 37.1344 42.2825 37.5012 41.25 37.5H3.75ZM22.5 35.625C23.0312 35.625 23.4769 35.445 23.8369 35.085C24.1969 34.725 24.3762 34.28 24.375 33.75C24.3738 33.22 24.1937 32.775 23.835 32.415C23.4762 32.055 23.0312 31.875 22.5 31.875C21.9688 31.875 21.5238 32.055 21.165 32.415C20.8063 32.775 20.6262 33.22 20.625 33.75C20.6238 34.28 20.8038 34.7256 21.165 35.0869C21.5263 35.4481 21.9712 35.6275 22.5 35.625ZM7.5 30H37.5V9.375H7.5V30Z" fill="#3B6BEE"/>
</svg>
