<svg width="32" height="32" viewBox="0 0 32 32" fill="none" xmlns="http://www.w3.org/2000/svg">
<path d="M6.73267 32C6.25578 32 5.85602 31.8467 5.53342 31.54C5.21081 31.2333 5.0495 30.8533 5.0495 30.4V25.12C3.4505 23.7333 2.20916 22.1133 1.32549 20.26C0.441834 18.4067 0 16.4533 0 14.4C0 10.4 1.47278 7 4.41832 4.2C7.36386 1.4 10.9406 0 15.1485 0C18.6551 0 21.762 0.979999 24.4691 2.94C27.1761 4.9 28.9365 7.45333 29.75 10.6L31.9381 18.8C32.0784 19.3067 31.9802 19.7667 31.6436 20.18C31.3069 20.5933 30.8581 20.8 30.297 20.8H26.9307V25.6C26.9307 26.48 26.6011 27.2333 25.9418 27.86C25.2826 28.4867 24.4901 28.8 23.5644 28.8H20.198V30.4C20.198 30.8533 20.0367 31.2333 19.7141 31.54C19.3915 31.8467 18.9917 32 18.5148 32H6.73267Z" fill="#3B6BEE"/>
</svg>
