<svg width="30" height="38" viewBox="0 0 30 38" fill="none" xmlns="http://www.w3.org/2000/svg">
<path d="M11.8583 35.3517C12.8683 36.1851 13.9217 36.9467 15 37.6901C16.0807 36.9566 17.1289 36.1764 18.1417 35.3517C19.83 33.9654 21.4189 32.4623 22.8967 30.8534C26.3033 27.1284 30 21.7284 30 15.6667C30 13.6969 29.612 11.7464 28.8582 9.9265C28.1044 8.10661 26.9995 6.45302 25.6066 5.06015C24.2137 3.66727 22.5601 2.56238 20.7403 1.80856C18.9204 1.05473 16.9698 0.666748 15 0.666748C13.0302 0.666748 11.0796 1.05473 9.25975 1.80856C7.43986 2.56238 5.78628 3.66727 4.3934 5.06015C3.00052 6.45302 1.89563 8.10661 1.14181 9.9265C0.387986 11.7464 -2.93527e-08 13.6969 0 15.6667C0 21.7284 3.69667 27.1267 7.10333 30.8534C8.58103 32.4629 10.1699 33.9649 11.8583 35.3517Z" fill="#3B6BEE"/>
</svg>
