<svg width="45" height="45" viewBox="0 0 45 45" fill="none" xmlns="http://www.w3.org/2000/svg">
<path d="M3.75 38.4375C2.71875 38.4375 1.83625 38.0706 1.1025 37.3369C0.36875 36.6031 0.00125 35.72 0 34.6875H7.5C6.46875 34.6875 5.58625 34.3206 4.8525 33.5869C4.11875 32.8531 3.75125 31.97 3.75 30.9375V10.3125C3.75 9.28125 4.1175 8.39875 4.8525 7.665C5.5875 6.93125 6.47 6.56375 7.5 6.5625H37.5C38.5313 6.5625 39.4144 6.93 40.1494 7.665C40.8844 8.4 41.2512 9.2825 41.25 10.3125V30.9375C41.25 31.9688 40.8831 32.8519 40.1494 33.5869C39.4156 34.3219 38.5325 34.6888 37.5 34.6875H45C45 35.7188 44.6331 36.6019 43.8994 37.3369C43.1656 38.0719 42.2825 38.4388 41.25 38.4375H3.75ZM22.5 36.5625C23.0312 36.5625 23.4769 36.3825 23.8369 36.0225C24.1969 35.6625 24.3762 35.2175 24.375 34.6875C24.3738 34.1575 24.1937 33.7125 23.835 33.3525C23.4762 32.9925 23.0312 32.8125 22.5 32.8125C21.9688 32.8125 21.5238 32.9925 21.165 33.3525C20.8063 33.7125 20.6262 34.1575 20.625 34.6875C20.6238 35.2175 20.8038 35.6631 21.165 36.0244C21.5263 36.3856 21.9712 36.565 22.5 36.5625Z" fill="#3B6BEE"/>
</svg>
